<?xml version="1.0" encoding="UTF-8"?>
<svg xmlns="http://www.w3.org/2000/svg" xmlns:xlink="http://www.w3.org/1999/xlink" width="250pt" height="250pt" viewBox="0 0 250 250" version="1.1">
<g id="surface24324815">
<path style=" stroke:none;fill-rule:nonzero;fill:rgb(20.392157%,59.607843%,85.882353%);fill-opacity:1;" d="M 60 0 C 54.53125 0 50 4.53125 50 10 L 50 20 L 20 20 C 17.382812 20 14.726562 20.957031 12.851562 22.851562 C 10.957031 24.726562 10 27.382812 10 30 L 10 230 C 10 232.617188 10.957031 235.273438 12.851562 237.167969 C 14.726562 239.042969 17.382812 240 20 240 L 230 240 C 232.617188 240 235.273438 239.042969 237.167969 237.167969 C 239.042969 235.273438 240 232.617188 240 230 L 240 30 C 240 27.382812 239.042969 24.726562 237.167969 22.851562 C 235.273438 20.957031 232.617188 20 230 20 L 200 20 L 200 10 C 200 4.53125 195.46875 0 190 0 L 180 0 C 174.53125 0 170 4.53125 170 10 L 170 20 L 80 20 L 80 10 C 80 4.53125 75.46875 0 70 0 Z M 60 10 L 70 10 L 70 40 L 60 40 Z M 180 10 L 190 10 L 190 40 L 180 40 Z M 20 30 L 50 30 L 50 40 C 50 45.46875 54.53125 50 60 50 L 70 50 C 75.46875 50 80 45.46875 80 40 L 80 30 L 170 30 L 170 40 C 170 45.46875 174.53125 50 180 50 L 190 50 C 195.46875 50 200 45.46875 200 40 L 200 30 L 230 30 L 230 65 L 20 65 Z M 20 75 L 230 75 L 230 230 L 20 230 Z M 50 95 L 50 210 L 200 210 L 200 95 Z M 60 105 L 85 105 L 85 130 L 60 130 Z M 95 105 L 120 105 L 120 130 L 95 130 Z M 130 105 L 155 105 L 155 130 L 130 130 Z M 165 105 L 190 105 L 190 130 L 165 130 Z M 60 140 L 85 140 L 85 165 L 60 165 Z M 95 140 L 120 140 L 120 165 L 95 165 Z M 130 140 L 155 140 L 155 165 L 130 165 Z M 165 140 L 190 140 L 190 165 L 165 165 Z M 60 175 L 85 175 L 85 200 L 60 200 Z M 95 175 L 120 175 L 120 200 L 95 200 Z M 130 175 L 155 175 L 155 200 L 130 200 Z M 165 175 L 190 175 L 190 200 L 165 200 Z M 165 175 "/>
</g>
</svg>
