<?xml version="1.0" encoding="UTF-8"?>
<svg xmlns="http://www.w3.org/2000/svg" xmlns:xlink="http://www.w3.org/1999/xlink" width="256pt" height="256pt" viewBox="0 0 256 256" version="1.1">
<g id="surface24965141">
<path style=" stroke:none;fill-rule:nonzero;fill:rgb(20.392157%,59.607843%,85.882353%);fill-opacity:1;" d="M 128 27 C 72.398438 27 27 72.398438 27 128 C 27 183.601562 72.398438 229 128 229 C 183.601562 229 229 183.601562 229 128 C 229 72.398438 183.601562 27 128 27 Z M 128 39 C 177 39 217 79 217 128 C 217 177 177 217 128 217 C 79 217 39 177 39 128 C 39 79 79 39 128 39 Z M 128 62 C 124.601562 62 122 64.601562 122 68 L 122 117.601562 C 118.398438 119.601562 116 123.601562 116 128 C 116 134.601562 121.398438 140 128 140 C 132.398438 140 136.398438 137.601562 138.398438 134 L 168 134 C 171.398438 134 174 131.398438 174 128 C 174 124.601562 171.398438 122 168 122 L 138.398438 122 C 137.398438 120.199219 135.800781 118.601562 134 117.601562 L 134 68 C 134 64.601562 131.398438 62 128 62 Z M 128 62 "/>
</g>
</svg>
