<svg id="Capa_1" enable-background="new 0 0 512 512" height="512" viewBox="0 0 512 512" width="512" xmlns="http://www.w3.org/2000/svg"><g><path d="m211 452c-16.569 0-30 13.431-30 30h-45c-8.291 0-15 6.709-15 15s6.709 15 15 15h240c8.291 0 15-6.709 15-15s-6.709-15-15-15h-45c0-16.569-13.431-30-30-30h-30v-91h15c8.291 0 15-6.709 15-15v-45h-90v45c0 8.291 6.709 15 15 15h15v91z"/><path d="m451 256v-241c0-8.291-6.709-15-15-15h-360c-8.291 0-15 6.709-15 15v241c0 8.291 6.709 15 15 15h360c8.291 0 15-6.709 15-15zm-165-45h-150c-8.291 0-15-6.709-15-15s6.709-15 15-15h150c8.291 0 15 6.709 15 15s-6.709 15-15 15zm90-60h-240c-8.291 0-15-6.709-15-15s6.709-15 15-15h240c8.291 0 15 6.709 15 15s-6.709 15-15 15zm0-60h-180c-8.291 0-15-6.709-15-15s6.709-15 15-15h180c8.291 0 15 6.709 15 15s-6.709 15-15 15z"/></g></svg>